<svg width="337" height="148" viewBox="0 0 337 148" fill="none" xmlns="http://www.w3.org/2000/svg">
<g id="piano">
<rect id="key_48" x="0.5" y="0.5" width="24" height="147" fill="white" stroke="black"/>
<rect id="key_50" x="24.5" y="0.5" width="24" height="147" fill="white" stroke="black"/>
<rect id="key_52" x="48.5" y="0.5" width="24" height="147" fill="white" stroke="black"/>
<rect id="key_53" x="72.5" y="0.5" width="24" height="147" fill="white" stroke="black"/>
<rect id="key_55" x="96.5" y="0.5" width="24" height="147" fill="white" stroke="black"/>
<rect id="key_57" x="120.5" y="0.5" width="24" height="147" fill="white" stroke="black"/>
<rect id="key_59" x="144.5" y="0.5" width="24" height="147" fill="white" stroke="black"/>
<rect id="key_60" x="168.5" y="0.5" width="24" height="147" fill="white" stroke="black"/>
<rect id="key_62" x="192.5" y="0.5" width="24" height="147" fill="white" stroke="black"/>
<rect id="key_64" x="216.5" y="0.5" width="24" height="147" fill="white" stroke="black"/>
<rect id="key_65" x="240.5" y="0.5" width="24" height="147" fill="white" stroke="black"/>
<rect id="key_67" x="264.5" y="0.5" width="24" height="147" fill="white" stroke="black"/>
<rect id="key_69" x="288.5" y="0.5" width="24" height="147" fill="white" stroke="black"/>
<rect id="key_71" x="312.5" y="0.5" width="24" height="147" fill="white" stroke="black"/>
<rect id="key_49" x="15" y="1" width="20" height="103" fill="black"/>
<rect id="key_51" x="39" y="1" width="20" height="103" fill="black"/>
<rect id="key_54" x="87" y="1" width="20" height="103" fill="black"/>
<rect id="key_56" x="111" y="1" width="20" height="103" fill="black"/>
<rect id="key_58" x="135" y="1" width="20" height="103" fill="black"/>
<rect id="key_61" x="183" y="1" width="20" height="103" fill="black"/>
<rect id="key_63" x="207" y="1" width="20" height="103" fill="black"/>
<rect id="key_66" x="255" y="1" width="20" height="103" fill="black"/>
<rect id="key_68" x="279" y="1" width="20" height="103" fill="black"/>
<rect id="key_70" x="303" y="1" width="20" height="103" fill="black"/>
</g>
</svg>
