<svg width="148" height="337" viewBox="0 0 148 337" fill="none" xmlns="http://www.w3.org/2000/svg">
<g id="piano">
<rect id="key_48" x="0.5" y="336.5" width="24" height="147" transform="rotate(-90 0.5 336.5)" fill="white" stroke="black"/>
<rect id="key_50" x="0.5" y="312.5" width="24" height="147" transform="rotate(-90 0.5 312.5)" fill="white" stroke="black"/>
<rect id="key_52" x="0.5" y="288.5" width="24" height="147" transform="rotate(-90 0.5 288.5)" fill="white" stroke="black"/>
<rect id="key_53" x="0.5" y="264.5" width="24" height="147" transform="rotate(-90 0.5 264.5)" fill="white" stroke="black"/>
<rect id="key_55" x="0.5" y="240.5" width="24" height="147" transform="rotate(-90 0.5 240.5)" fill="white" stroke="black"/>
<rect id="key_57" x="0.5" y="216.5" width="24" height="147" transform="rotate(-90 0.5 216.5)" fill="white" stroke="black"/>
<rect id="key_59" x="0.5" y="192.5" width="24" height="147" transform="rotate(-90 0.5 192.5)" fill="white" stroke="black"/>
<rect id="key_60" x="0.5" y="168.5" width="24" height="147" transform="rotate(-90 0.5 168.5)" fill="white" stroke="black"/>
<rect id="key_62" x="0.5" y="144.5" width="24" height="147" transform="rotate(-90 0.5 144.5)" fill="white" stroke="black"/>
<rect id="key_64" x="0.5" y="120.5" width="24" height="147" transform="rotate(-90 0.5 120.5)" fill="white" stroke="black"/>
<rect id="key_65" x="0.5" y="96.5" width="24" height="147" transform="rotate(-90 0.5 96.5)" fill="white" stroke="black"/>
<rect id="key_67" x="0.5" y="72.5" width="24" height="147" transform="rotate(-90 0.5 72.5)" fill="white" stroke="black"/>
<rect id="key_69" x="0.5" y="48.5" width="24" height="147" transform="rotate(-90 0.5 48.5)" fill="white" stroke="black"/>
<rect id="key_71" x="0.5" y="24.5" width="24" height="147" transform="rotate(-90 0.5 24.5)" fill="white" stroke="black"/>
<rect id="key_49" x="1" y="322" width="20" height="103" transform="rotate(-90 1 322)" fill="black"/>
<rect id="key_51" x="1" y="298" width="20" height="103" transform="rotate(-90 1 298)" fill="black"/>
<rect id="key_54" x="1" y="250" width="20" height="103" transform="rotate(-90 1 250)" fill="black"/>
<rect id="key_56" x="1" y="226" width="20" height="103" transform="rotate(-90 1 226)" fill="black"/>
<rect id="key_58" x="1" y="202" width="20" height="103" transform="rotate(-90 1 202)" fill="black"/>
<rect id="key_61" x="1" y="154" width="20" height="103" transform="rotate(-90 1 154)" fill="black"/>
<rect id="key_63" x="1" y="130" width="20" height="103" transform="rotate(-90 1 130)" fill="black"/>
<rect id="key_66" x="1" y="82" width="20" height="103" transform="rotate(-90 1 82)" fill="black"/>
<rect id="key_68" x="1" y="58" width="20" height="103" transform="rotate(-90 1 58)" fill="black"/>
<rect id="key_70" x="1" y="34" width="20" height="103" transform="rotate(-90 1 34)" fill="black"/>
</g>
</svg>
